<svg width="433" height="200" viewBox="0 0 433 200" fill="none" xmlns="http://www.w3.org/2000/svg">
<path d="M22.6179 69.0042C17.8112 69.0042 13.7286 68.2464 10.3716 66.7304C7.0131 65.2146 4.44537 63.0067 2.66694 60.1069C0.888511 57.2069 0 53.5821 0 49.2322V45.9698H10.9639V49.5288C10.9639 52.7582 11.9516 55.2628 13.927 57.0422C15.9024 58.7557 18.7989 59.6126 22.6179 59.6126C26.3718 59.6126 29.2357 58.3603 31.2111 55.8559C33.1865 53.3514 34.1742 49.7595 34.1742 45.0801V0H45.2373V44.8824C45.2373 50.2208 44.3488 54.7025 42.5703 58.3274C40.7919 61.8863 38.2242 64.5555 34.8657 66.335C31.5072 68.1145 27.4246 69.0042 22.6179 69.0042Z" fill="#7B7F7B"/>
<path d="M72.7329 69.0057C71.0863 69.0057 69.3078 68.808 67.399 68.4125C65.4888 68.0171 63.6778 67.2922 61.966 66.2376C60.3208 65.1831 58.9703 63.7332 57.9174 61.8878C56.8631 59.9764 56.3359 57.505 56.3359 54.4734C56.3359 50.9143 57.1593 47.9816 58.8059 45.6748C60.4526 43.3681 62.7567 41.5556 65.7198 40.2375C68.6829 38.9193 72.2058 37.9966 76.2883 37.4694C80.4361 36.9421 84.9467 36.6786 89.82 36.6786V31.5377C89.82 29.8242 89.5238 28.3084 88.9315 26.9902C88.4044 25.6721 87.384 24.6505 85.8692 23.9256C84.4209 23.2007 82.3138 22.8381 79.5476 22.8381C76.7815 22.8381 74.6091 23.2007 73.0291 23.9256C71.5142 24.5847 70.4273 25.4415 69.7698 26.4959C69.1761 27.4845 68.8799 28.572 68.8799 29.7583V31.2412H59.0029C58.9377 30.9117 58.9051 30.5822 58.9051 30.2526C58.9051 29.9231 58.9051 29.5277 58.9051 29.0663C58.9051 25.9687 59.761 23.3653 61.4728 21.2564C63.2498 19.0815 65.7198 17.4338 68.8799 16.3134C72.0414 15.1929 75.696 14.6328 79.8438 14.6328C84.3217 14.6328 88.0416 15.2918 91.0047 16.61C94.0344 17.8623 96.306 19.6746 97.8208 22.0473C99.3342 24.4199 100.092 27.2868 100.092 30.648V57.0437C100.092 58.2958 100.389 59.1856 100.981 59.7129C101.64 60.2401 102.397 60.5038 103.252 60.5038H106.808V67.4239C106.019 67.7536 105.031 68.083 103.845 68.4125C102.66 68.7422 101.277 68.9068 99.697 68.9068C97.9186 68.9068 96.4051 68.5773 95.1539 67.9182C93.9678 67.3251 92.9801 66.4683 92.1908 65.3479C91.4666 64.1616 90.9721 62.8435 90.7085 61.3935H90.1162C88.9315 62.9093 87.4818 64.2604 85.77 65.4468C84.1234 66.5671 82.2146 67.4239 80.0422 68.0171C77.8684 68.6762 75.4325 69.0057 72.7329 69.0057ZM75.5968 60.5038C77.6374 60.5038 79.515 60.2072 81.2269 59.6141C83.0053 58.9549 84.5187 58.0652 85.77 56.9449C87.0213 55.7585 88.009 54.3745 88.7331 52.7926C89.4572 51.1451 89.82 49.3656 89.82 47.4542V43.9942C85.2769 43.9942 81.292 44.2578 77.8684 44.785C74.4447 45.3122 71.7778 46.301 69.8676 47.7508C67.9588 49.1348 67.0037 51.0791 67.0037 53.5836C67.0037 55.0994 67.3324 56.3846 67.9914 57.4392C68.6503 58.4277 69.638 59.1856 70.9545 59.7129C72.271 60.2401 73.8184 60.5038 75.5968 60.5038Z" fill="#7B7F7B"/>
<path d="M119.522 85.8092C117.547 85.8092 115.9 85.6444 114.583 85.3149C113.267 85.0512 112.444 84.8865 112.115 84.8206V77.4061H117.053C118.502 77.4061 119.95 77.0765 121.398 76.4176C122.913 75.7584 124.263 74.7039 125.448 73.2539C126.634 71.8041 127.622 69.9916 128.411 67.8167L108.164 15.8164H118.93L129.004 41.7177C129.466 42.904 129.959 44.3869 130.486 46.1663C131.078 47.9458 131.638 49.7583 132.165 51.6036C132.757 53.449 133.251 55.0967 133.646 56.5467H134.14C134.469 55.5581 134.798 54.4376 135.128 53.1855C135.524 51.8673 135.917 50.5161 136.313 49.1321C136.708 47.7481 137.104 46.43 137.499 45.1777C137.893 43.8597 138.223 42.7392 138.487 41.8165L146.881 15.8164H157.351L139.77 65.8395C138.783 68.6075 137.696 71.2109 136.511 73.6494C135.325 76.0879 133.942 78.197 132.362 79.9765C130.847 81.8218 129.038 83.2388 126.93 84.2274C124.823 85.282 122.353 85.8092 119.522 85.8092Z" fill="#7B7F7B"/>
<path d="M183.98 69.0045C180.36 69.0045 177.166 68.609 174.399 67.8182C171.635 67.0273 169.329 65.9398 167.485 64.5558C165.642 63.1718 164.226 61.5241 163.239 59.6129C162.317 57.6357 161.855 55.4608 161.855 53.088C161.855 52.7585 161.855 52.4619 161.855 52.1983C161.922 51.9347 161.955 51.704 161.955 51.5063H172.128C172.128 51.704 172.128 51.9017 172.128 52.0994C172.128 52.2313 172.128 52.396 172.128 52.5937C172.128 54.6368 172.688 56.2845 173.807 57.5368C174.927 58.7231 176.409 59.5798 178.252 60.1072C180.161 60.5685 182.236 60.7992 184.475 60.7992C186.45 60.7992 188.261 60.5685 189.906 60.1072C191.62 59.5798 193.001 58.822 194.056 57.8334C195.175 56.8448 195.735 55.5925 195.735 54.0767C195.735 52.0994 195.043 50.5836 193.66 49.5291C192.277 48.4747 190.466 47.6507 188.227 47.0576C185.99 46.3986 183.652 45.7065 181.216 44.9815C179.042 44.3884 176.869 43.7623 174.697 43.1032C172.59 42.3783 170.68 41.4555 168.968 40.3352C167.256 39.2148 165.873 37.7977 164.819 36.0842C163.766 34.3706 163.239 32.2287 163.239 29.6582C163.239 27.2198 163.766 25.0778 164.819 23.2324C165.873 21.3869 167.321 19.8382 169.165 18.586C171.075 17.3337 173.314 16.378 175.882 15.7191C178.516 15.06 181.38 14.7305 184.475 14.7305C187.701 14.7305 190.565 15.0929 193.068 15.8179C195.571 16.4769 197.676 17.4326 199.39 18.6848C201.167 19.9371 202.517 21.4529 203.438 23.2324C204.361 24.946 204.821 26.7913 204.821 28.7685C204.821 29.1639 204.789 29.5924 204.722 30.0537C204.722 30.4491 204.722 30.7128 204.722 30.8445H194.648V29.9548C194.648 28.6367 194.285 27.4504 193.561 26.3959C192.837 25.3415 191.685 24.4846 190.105 23.8255C188.59 23.1664 186.549 22.8369 183.98 22.8369C182.268 22.8369 180.754 23.0017 179.437 23.3312C178.121 23.5949 177.034 23.9903 176.178 24.5175C175.322 25.0449 174.663 25.6709 174.202 26.3959C173.807 27.1209 173.61 27.9447 173.61 28.8673C173.61 30.3833 174.137 31.5696 175.19 32.4264C176.31 33.2173 177.758 33.9093 179.536 34.5025C181.313 35.0297 183.224 35.6228 185.264 36.2819C187.635 36.9409 190.038 37.6329 192.476 38.358C194.912 39.0171 197.151 39.8738 199.191 40.9283C201.298 41.9829 202.978 43.4327 204.229 45.2781C205.545 47.1235 206.204 49.595 206.204 52.6926C206.204 55.5266 205.644 57.9981 204.525 60.1072C203.405 62.2161 201.825 63.9298 199.783 65.2478C197.808 66.5001 195.471 67.4227 192.772 68.0159C190.072 68.675 187.142 69.0045 183.98 69.0045Z" fill="#7B7F7B"/>
<path d="M238.749 69.0057C233.35 69.0057 228.774 68.0501 225.02 66.1388C221.333 64.1616 218.534 61.1629 216.624 57.1426C214.78 53.1223 213.859 48.0145 213.859 41.8192C213.859 35.5581 214.78 30.4503 216.624 26.4959C218.534 22.4756 221.333 19.5098 225.02 17.5986C228.774 15.6214 233.35 14.6328 238.749 14.6328C244.28 14.6328 248.889 15.6214 252.577 17.5986C256.264 19.5098 259.03 22.4756 260.874 26.4959C262.784 30.4503 263.738 35.5581 263.738 41.8192C263.738 48.0145 262.784 53.1223 260.874 57.1426C259.03 61.1629 256.264 64.1616 252.577 66.1388C248.889 68.0501 244.28 69.0057 238.749 69.0057ZM238.749 60.5038C242.042 60.5038 244.742 59.8776 246.849 58.6255C248.956 57.3072 250.504 55.3301 251.491 52.6938C252.544 50.0576 253.071 46.7293 253.071 42.709V40.9295C253.071 36.9092 252.544 33.5809 251.491 30.9446C250.504 28.3084 248.956 26.3642 246.849 25.1119C244.742 23.7938 242.042 23.1347 238.749 23.1347C235.522 23.1347 232.855 23.7938 230.749 25.1119C228.642 26.3642 227.061 28.3084 226.008 30.9446C225.02 33.5809 224.526 36.9092 224.526 40.9295V42.709C224.526 46.7293 225.02 50.0576 226.008 52.6938C227.061 55.3301 228.642 57.3072 230.749 58.6255C232.855 59.8776 235.522 60.5038 238.749 60.5038Z" fill="#7B7F7B"/>
<path d="M274.195 67.8194V15.8191H282.691L283.579 23.2336H284.271C285.522 21.3223 287.003 19.7406 288.715 18.4883C290.426 17.2361 292.304 16.2804 294.345 15.6214C296.452 14.9623 298.756 14.6328 301.259 14.6328C304.552 14.6328 307.448 15.226 309.951 16.4123C312.454 17.5326 314.395 19.3781 315.778 21.9484C317.226 24.5187 317.952 27.9788 317.952 32.3288V67.8194H307.679V33.9105C307.679 31.9333 307.416 30.2856 306.889 28.9674C306.428 27.6493 305.737 26.5948 304.814 25.8039C303.893 25.013 302.806 24.4528 301.555 24.1233C300.303 23.7938 298.922 23.629 297.407 23.629C295.036 23.629 292.864 24.2222 290.888 25.4085C288.978 26.529 287.431 28.1107 286.246 30.1537C285.06 32.1969 284.468 34.6025 284.468 37.3706V67.8194H274.195Z" fill="#7B7F7B"/>
<path d="M0 182.745L25.4832 117.699H39.0305L64.6072 182.745H53.2395L47.4607 167.669H16.6733L10.8945 182.745H0ZM20.0828 158.661H43.9562L36.6611 139.603C36.4727 139.034 36.1878 138.244 35.8095 137.233C35.4297 136.222 35.0202 135.115 34.578 133.914C34.1983 132.712 33.7873 131.511 33.3452 130.311C32.9668 129.046 32.6196 127.909 32.3036 126.897H31.7354C31.357 128.099 30.8823 129.521 30.3141 131.164C29.7458 132.808 29.1776 134.388 28.6093 135.905C28.1034 137.421 27.6613 138.655 27.2829 139.603L20.0828 158.661Z" fill="#7B7F7B"/>
<path d="M71.6484 182.733V114.18H81.5014V182.733H71.6484Z" fill="#7B7F7B"/>
<path d="M114.87 183.877C109.755 183.877 105.459 182.96 101.986 181.128C98.5767 179.232 95.9863 176.355 94.2178 172.499C92.4507 168.643 91.5664 163.744 91.5664 157.802C91.5664 151.796 92.4507 146.899 94.2178 143.106C95.9863 139.25 98.6078 136.404 102.081 134.572C105.554 132.675 109.881 131.727 115.06 131.727C119.796 131.727 123.744 132.644 126.901 134.477C130.122 136.247 132.554 138.964 134.195 142.631C135.837 146.297 136.659 150.913 136.659 156.474V160.268H101.703C101.829 163.807 102.366 166.778 103.313 169.18C104.261 171.518 105.68 173.257 107.575 174.395C109.533 175.47 111.996 176.008 114.965 176.008C116.796 176.008 118.438 175.786 119.891 175.344C121.343 174.837 122.575 174.142 123.585 173.257C124.596 172.31 125.385 171.204 125.953 169.938C126.523 168.611 126.806 167.126 126.806 165.482H136.469C136.469 168.453 135.963 171.076 134.953 173.352C133.943 175.627 132.459 177.556 130.501 179.136C128.606 180.653 126.333 181.823 123.68 182.644C121.027 183.467 118.091 183.877 114.87 183.877ZM101.891 153.061H126.333C126.333 150.596 126.048 148.541 125.48 146.899C124.975 145.191 124.217 143.801 123.207 142.726C122.196 141.651 120.996 140.893 119.606 140.451C118.217 139.945 116.639 139.692 114.87 139.692C112.217 139.692 109.944 140.166 108.05 141.115C106.218 142.062 104.796 143.547 103.786 145.571C102.775 147.53 102.145 150.028 101.891 153.061Z" fill="#7B7F7B"/>
<path d="M155.013 200.001C152.74 200.001 150.593 199.527 148.571 198.578C146.614 197.631 145.035 196.272 143.835 194.502C142.635 192.732 142.035 190.582 142.035 188.054C142.035 185.273 142.793 183.029 144.308 181.321C145.887 179.553 147.719 178.225 149.804 177.34C148.287 176.644 147.056 175.632 146.108 174.305C145.224 172.979 144.781 171.461 144.781 169.755C144.781 167.416 145.635 165.519 147.339 164.066C149.045 162.61 151.035 161.663 153.308 161.22C151.097 159.767 149.361 157.934 148.097 155.721C146.897 153.509 146.298 151.011 146.298 148.23C146.298 144.88 147.087 142.005 148.666 139.602C150.244 137.137 152.581 135.209 155.676 133.818C158.835 132.428 162.655 131.731 167.139 131.731C169.097 131.731 170.928 131.89 172.634 132.207C174.401 132.459 175.981 132.838 177.37 133.344C179.581 132.207 181.159 130.846 182.107 129.266C183.054 127.624 183.622 126.106 183.812 124.715H193.475C193.475 126.801 193.033 128.698 192.149 130.404C191.327 132.048 190.159 133.439 188.643 134.577C187.19 135.652 185.422 136.409 183.339 136.852C184.917 138.306 186.085 140.013 186.843 141.972C187.665 143.868 188.074 145.955 188.074 148.23C188.074 151.517 187.316 154.394 185.801 156.859C184.285 159.324 181.981 161.252 178.886 162.643C175.855 164.033 172.097 164.728 167.612 164.728H159.845C158.329 164.728 157.097 165.044 156.151 165.677C155.266 166.309 154.824 167.257 154.824 168.522C154.824 169.596 155.266 170.481 156.151 171.176C157.033 171.872 158.203 172.22 159.655 172.22H180.686C184.349 172.22 187.38 173.452 189.781 175.917C192.18 178.319 193.38 181.416 193.38 185.209C193.38 187.99 192.653 190.488 191.201 192.699C189.812 194.976 187.822 196.746 185.233 198.01C182.707 199.337 179.77 200.001 176.423 200.001H155.013ZM158.234 192.699H176.328C177.655 192.699 178.854 192.447 179.928 191.942C181.002 191.436 181.854 190.709 182.486 189.761C183.118 188.875 183.434 187.864 183.434 186.727C183.434 184.83 182.833 183.345 181.632 182.27C180.496 181.195 179.075 180.658 177.37 180.658H158.234C156.465 180.658 154.982 181.259 153.781 182.46C152.581 183.598 151.982 185.02 151.982 186.727C151.982 188.497 152.55 189.919 153.686 190.993C154.887 192.131 156.403 192.699 158.234 192.699ZM167.234 157.618C170.96 157.618 173.739 156.795 175.57 155.153C177.401 153.445 178.318 151.139 178.318 148.23C178.318 145.26 177.401 142.983 175.57 141.403C173.739 139.759 170.96 138.938 167.234 138.938C163.508 138.938 160.729 139.759 158.897 141.403C157.066 142.983 156.151 145.26 156.151 148.23C156.151 150.126 156.529 151.801 157.287 153.256C158.108 154.646 159.339 155.721 160.981 156.479C162.686 157.238 164.771 157.618 167.234 157.618Z" fill="#7B7F7B"/>
<path d="M213.592 183.877C212.014 183.877 210.309 183.688 208.477 183.308C206.646 182.929 204.909 182.234 203.268 181.223C201.688 180.21 200.394 178.82 199.383 177.05C198.373 175.218 197.867 172.846 197.867 169.938C197.867 166.526 198.656 163.712 200.235 161.501C201.815 159.288 204.024 157.549 206.867 156.285C209.708 155.02 213.088 154.135 217.003 153.63C220.983 153.124 225.309 152.871 229.982 152.871V147.941C229.982 146.297 229.698 144.844 229.129 143.58C228.623 142.315 227.646 141.336 226.192 140.64C224.803 139.945 222.782 139.597 220.129 139.597C217.477 139.597 215.392 139.945 213.877 140.64C212.425 141.272 211.382 142.093 210.751 143.106C210.183 144.053 209.898 145.096 209.898 146.235V147.656H200.425C200.361 147.341 200.33 147.025 200.33 146.709C200.33 146.392 200.33 146.014 200.33 145.571C200.33 142.6 201.152 140.103 202.793 138.079C204.499 135.994 206.867 134.414 209.898 133.339C212.929 132.264 216.435 131.727 220.414 131.727C224.708 131.727 228.276 132.359 231.119 133.623C234.024 134.824 236.202 136.563 237.654 138.838C239.107 141.115 239.834 143.863 239.834 147.087V172.404C239.834 173.605 240.119 174.459 240.687 174.964C241.318 175.47 242.044 175.722 242.865 175.722H246.276V182.36C245.518 182.677 244.571 182.992 243.433 183.308C242.297 183.624 240.97 183.783 239.455 183.783C237.749 183.783 236.297 183.467 235.097 182.834C233.96 182.265 233.013 181.444 232.255 180.369C231.561 179.231 231.086 177.966 230.834 176.576H230.266C229.129 178.03 227.739 179.327 226.098 180.464C224.518 181.538 222.687 182.36 220.603 182.929C218.52 183.562 216.183 183.877 213.592 183.877ZM216.34 175.722C218.299 175.722 220.098 175.439 221.739 174.87C223.445 174.237 224.898 173.384 226.098 172.31C227.297 171.171 228.245 169.843 228.939 168.327C229.634 166.747 229.982 165.039 229.982 163.207V159.888C225.623 159.888 221.803 160.14 218.52 160.647C215.235 161.152 212.677 162.101 210.846 163.491C209.014 164.818 208.098 166.683 208.098 169.086C208.098 170.54 208.414 171.772 209.045 172.784C209.677 173.731 210.625 174.459 211.888 174.964C213.15 175.47 214.635 175.722 216.34 175.722Z" fill="#7B7F7B"/>
<path d="M253.074 182.739V132.866H261.221L262.074 140.925H262.642C263.211 139.345 263.938 137.858 264.822 136.468C265.768 135.077 266.969 133.939 268.421 133.054C269.937 132.169 271.768 131.727 273.915 131.727C274.926 131.727 275.81 131.822 276.568 132.012C277.388 132.202 278.02 132.359 278.463 132.485V141.778H275.147C273.126 141.778 271.326 142.093 269.748 142.726C268.231 143.358 266.937 144.306 265.863 145.571C264.853 146.771 264.095 148.257 263.59 150.028C263.148 151.796 262.927 153.788 262.927 156V182.739H253.074Z" fill="#7B7F7B"/>
<path d="M310.829 183.87C307.545 183.87 304.577 183.207 301.924 181.879C299.271 180.553 297.093 178.562 295.388 175.906H294.725L293.872 182.733H285.82V114.18H295.672V138.927H296.24C297.314 137.283 298.577 135.924 300.029 134.849C301.546 133.776 303.25 132.986 305.145 132.479C307.04 131.974 309.093 131.72 311.302 131.72C315.093 131.72 318.44 132.638 321.345 134.471C324.25 136.305 326.492 139.117 328.07 142.91C329.713 146.703 330.533 151.602 330.533 157.607C330.533 163.738 329.744 168.732 328.165 172.587C326.587 176.444 324.312 179.288 321.345 181.122C318.44 182.954 314.934 183.87 310.829 183.87ZM308.083 175.338C310.924 175.338 313.229 174.769 314.998 173.63C316.829 172.492 318.186 170.722 319.071 168.321C319.955 165.856 320.397 162.663 320.397 158.744V157.038C320.397 153.118 319.955 149.926 319.071 147.461C318.25 144.996 316.924 143.194 315.093 142.056C313.261 140.855 310.861 140.255 307.893 140.255C306.06 140.255 304.387 140.571 302.872 141.202C301.356 141.835 300.062 142.846 298.988 144.237C297.914 145.565 297.093 147.303 296.525 149.453C295.957 151.602 295.672 154.193 295.672 157.227V158.554C295.672 162.158 296.083 165.223 296.903 167.752C297.788 170.217 299.145 172.114 300.977 173.441C302.808 174.705 305.176 175.338 308.083 175.338Z" fill="#7B7F7B"/>
<path d="M361.34 183.877C356.225 183.877 351.93 182.96 348.456 181.128C345.045 179.232 342.456 176.355 340.688 172.499C338.919 168.643 338.035 163.744 338.035 157.802C338.035 151.796 338.919 146.899 340.688 143.106C342.456 139.25 345.077 136.404 348.551 134.572C352.024 132.675 356.351 131.727 361.529 131.727C366.266 131.727 370.213 132.644 373.371 134.477C376.592 136.247 379.023 138.964 380.665 142.631C382.307 146.297 383.128 150.913 383.128 156.474V160.268H348.172C348.298 163.807 348.835 166.778 349.783 169.18C350.729 171.518 352.151 173.257 354.045 174.395C356.004 175.47 358.467 176.008 361.434 176.008C363.266 176.008 364.909 175.786 366.361 175.344C367.814 174.837 369.045 174.142 370.055 173.257C371.066 172.31 371.855 171.204 372.423 169.938C372.992 168.611 373.276 167.126 373.276 165.482H382.938C382.938 168.453 382.434 171.076 381.423 173.352C380.413 175.627 378.928 177.556 376.971 179.136C375.076 180.653 372.802 181.823 370.15 182.644C367.498 183.467 364.56 183.877 361.34 183.877ZM348.361 153.061H372.802C372.802 150.596 372.518 148.541 371.95 146.899C371.444 145.191 370.686 143.801 369.676 142.726C368.665 141.651 367.466 140.893 366.076 140.451C364.687 139.945 363.107 139.692 361.34 139.692C358.688 139.692 356.413 140.166 354.519 141.115C352.688 142.062 351.266 143.547 350.256 145.571C349.246 147.53 348.614 150.028 348.361 153.061Z" fill="#7B7F7B"/>
<path d="M411.508 183.879C408.035 183.879 404.971 183.501 402.32 182.742C399.667 181.983 397.457 180.94 395.688 179.613C393.92 178.285 392.562 176.705 391.614 174.873C390.731 172.976 390.289 170.89 390.289 168.613C390.289 168.299 390.289 168.014 390.289 167.761C390.351 167.507 390.383 167.286 390.383 167.097H400.141C400.141 167.286 400.141 167.476 400.141 167.666C400.141 167.792 400.141 167.95 400.141 168.14C400.141 170.1 400.678 171.68 401.75 172.881C402.825 174.019 404.246 174.84 406.014 175.346C407.845 175.789 409.835 176.01 411.982 176.01C413.876 176.01 415.614 175.789 417.192 175.346C418.835 174.84 420.161 174.114 421.171 173.165C422.246 172.218 422.781 171.016 422.781 169.562C422.781 167.666 422.118 166.212 420.792 165.201C419.467 164.19 417.729 163.4 415.582 162.829C413.434 162.198 411.192 161.534 408.856 160.839C406.772 160.271 404.688 159.669 402.603 159.037C400.583 158.342 398.752 157.457 397.109 156.383C395.467 155.308 394.141 153.949 393.13 152.305C392.12 150.661 391.614 148.608 391.614 146.143C391.614 143.804 392.12 141.748 393.13 139.978C394.141 138.21 395.531 136.723 397.298 135.522C399.13 134.322 401.277 133.404 403.74 132.773C406.267 132.141 409.014 131.824 411.982 131.824C415.077 131.824 417.824 132.172 420.223 132.868C422.624 133.499 424.645 134.417 426.287 135.617C427.992 136.818 429.287 138.272 430.171 139.978C431.055 141.622 431.498 143.392 431.498 145.289C431.498 145.667 431.465 146.079 431.403 146.521C431.403 146.901 431.403 147.154 431.403 147.28H421.74V146.426C421.74 145.162 421.392 144.025 420.698 143.014C420.002 142.002 418.898 141.18 417.382 140.549C415.93 139.916 413.971 139.6 411.508 139.6C409.866 139.6 408.413 139.757 407.151 140.073C405.888 140.327 404.845 140.706 404.025 141.211C403.204 141.717 402.572 142.317 402.13 143.014C401.75 143.709 401.562 144.499 401.562 145.384C401.562 146.837 402.066 147.975 403.077 148.798C404.151 149.555 405.541 150.219 407.246 150.788C408.951 151.294 410.783 151.863 412.74 152.495C415.014 153.126 417.318 153.79 419.655 154.487C421.992 155.118 424.14 155.94 426.097 156.952C428.118 157.963 429.729 159.353 430.929 161.123C432.192 162.893 432.824 165.263 432.824 168.235C432.824 170.952 432.287 173.324 431.213 175.346C430.139 177.369 428.624 179.013 426.665 180.277C424.771 181.478 422.529 182.363 419.94 182.932C417.351 183.564 414.539 183.879 411.508 183.879Z" fill="#7B7F7B"/>
</svg>
